<?xml version="1.0" encoding="UTF-8" standalone="no"?>
<!-- Copyright 2017 mathsisfun.com -->
<svg xmlns="http://www.w3.org/2000/svg" width="348.3" height="231.8" version="1.1" style="font-family:'Comic Sans MS'; font-size:24.3px; stroke-width:0.34;">
<defs>
	<marker id="id5" style="overflow:visible;" orient="auto">
		<path transform="matrix(0.4,0,0,0.4,4,0)" style="fill:#ff0000; stroke:#ff0000; stroke-width:1pt;" d="M 0,0 5,-5 -12.5,0 5,5 Z"/>
	</marker>
	<marker id="id6" style="overflow:visible;" orient="auto">
		<path transform="matrix(-0.4,0,0,-0.4,-4,0)" style="fill:#ff0000; stroke:#ff0000; stroke-width:1pt;" d="M 0,0 5,-5 -12.5,0 5,5 Z"/>
	</marker>
	<marker id="id3" style="overflow:visible;" orient="auto">
		<path transform="matrix(0.4,0,0,0.4,4,0)" style="fill:#0000ff; stroke:#0000ff; stroke-width:1pt;" d="M 0,0 5,-5 -12.5,0 5,5 Z"/>
	</marker>
	<marker id="id4" style="overflow:visible;" orient="auto">
		<path transform="matrix(-0.4,0,0,-0.4,-4,0)" style="fill:#0000ff; stroke:#0000ff; stroke-width:1pt;" d="M 0,0 5,-5 -12.5,0 5,5 Z"/>
	</marker>
	<marker id="id1" style="overflow:visible;" orient="auto">
		<path transform="matrix(-0.8,0,0,-0.8,-10,0)" style="fill:#ff0000; stroke:#ff0000; stroke-width:1pt;" d="M 0,0 5,-5 -12.5,0 5,5 Z"/>
	</marker>
	<marker id="id2" style="overflow:visible;" orient="auto">
		<path transform="matrix(-0.8,0,0,-0.8,-10,0)" style="fill:#0000ff; stroke:#0000ff; stroke-width:1pt;" d="M 0,0 5,-5 -12.5,0 5,5 Z"/>
	</marker>
	<marker id="id7" style="overflow:visible;" orient="auto">
		<path transform="matrix(-1.1,0,0,-1.1,-1.1,0)" style="fill:#0000ff; stroke:#0000ff; stroke-width:0.63; stroke-linejoin:round;" d="M 8.7,4 -2.2,0 8.7,-4 C 7,-1.6 7,1.6 8.7,4 Z"/>
	</marker>
</defs>
<path style="fill:none; stroke:#19aeff;" d="M 102.8,229.2 V 0"/>
<path style="fill:none; stroke:#19aeff;" d="M 68.6,229.2 V 0"/>
<path style="fill:none; stroke:#19aeff; stroke-width:0.78;" d="M 34.4,229.2 V 0"/>
<path style="fill:none; stroke:#19aeff;" d="M 0.2,229.2 V 0"/>
<path style="fill:none; stroke:#19aeff;" d="M 273.7,229.2 V 0"/>
<path style="fill:none; stroke:#19aeff; stroke-width:0.78;" d="M 205.3,229.2 V 0"/>
<path style="fill:none; stroke:#19aeff;" d="M 171.2,229.2 V 0"/>
<path style="fill:none; stroke:#19aeff;" d="M 136.9,229.2 V 0"/>
<path style="fill:none; stroke:#19aeff;" d="M 239.5,229.2 V 0"/>
<path style="fill:none; stroke:#19aeff; stroke-width:0.78;" d="M 119.9,229.2 V 0"/>
<path style="fill:none; stroke:#19aeff;" d="M 85.6,229.2 V 0"/>
<path style="fill:none; stroke:#19aeff;" d="M 51.5,229.2 V 0"/>
<path style="fill:none; stroke:#19aeff;" d="M 17.3,229.2 V 0"/>
<path style="fill:none; stroke:#19aeff;" d="M 222.4,229.2 V 0"/>
<path style="fill:none; stroke:#19aeff;" d="M 188.2,229.2 V 0"/>
<path style="fill:none; stroke:#19aeff;" d="M 154,229.2 V 0"/>
<path style="fill:none; stroke:#19aeff;" d="M 256.6,229.2 V 0"/>
<path style="fill:none; stroke:#19aeff; stroke-width:0.78;" d="M 290.8,229.2 V 0"/>
<path style="fill:none; stroke:#19aeff;" d="M 307.9,229.2 V 0"/>
<path style="fill:none; stroke:#19aeff;" d="M 325,229.2 V 0"/>
<path style="fill:none; stroke:#19aeff;" d="M 342.1,229.2 V 0"/>
<path style="fill:none; stroke:#19aeff;" d="M 0.3,126.7 H 348.3"/>
<path style="fill:none; stroke:#19aeff;" d="M 0.3,160.9 H 348.3"/>
<path style="fill:none; stroke:#19aeff; stroke-width:0.78;" d="M 0.3,195.1 H 348.3"/>
<path style="fill:none; stroke:#19aeff;" d="M 0.3,229.3 H 348.3"/>
<path style="fill:none; stroke:#19aeff; stroke-width:0.78;" d="M 0.3,24.2 H 348.3"/>
<path style="fill:none; stroke:#19aeff;" d="M 0.3,58.3 H 348.3"/>
<path style="fill:none; stroke:#19aeff;" d="M 0.3,92.6 H 348.3"/>
<path style="fill:none; stroke:#19aeff; stroke-width:0.78;" d="M 0.3,109.6 H 348.3"/>
<path style="fill:none; stroke:#19aeff;" d="M 0.3,143.9 H 348.3"/>
<path style="fill:none; stroke:#19aeff;" d="M 0.3,178 H 348.3"/>
<path style="fill:none; stroke:#19aeff;" d="M 0.3,212.2 H 348.3"/>
<path style="fill:none; stroke:#19aeff;" d="M 0.3,7.1 H 348.3"/>
<path style="fill:none; stroke:#19aeff;" d="M 0.3,41.3 H 348.3"/>
<path style="fill:none; stroke:#19aeff;" d="M 0.3,75.5 H 348.3"/>
<path style="marker-end:url(#id1); fill:none; fill-opacity:0.75; stroke:#ff0000; stroke-width:1.55;" d="M 34.2,231.8 V 8.1"/>
<path style="marker-end:url(#id2); fill:none; stroke:#0000ff; stroke-width:1.55;" d="M 0.1,194.8 H 329.5"/>
<text x="111.6" y="216.9" transform="scale(0.99882,1.00118)" style="fill:#0000ff; stroke-width:0.39;">5</text>
<text x="192.1" y="217.1" transform="scale(0.99882,1.00118)" style="fill:#0000ff; stroke-width:0.39;">10</text>
<text x="26.5" y="217.1" transform="scale(0.99882,1.00118)" style="fill:#0000ff; stroke-width:0.39;">0</text>
<text x="11.7" y="118" transform="scale(0.99882,1.00118)" style="fill:#ff0000; stroke-width:0.39;">5</text>
<text x="2.4" y="32.5" transform="scale(0.99882,1.00118)" style="fill:#ff0000; stroke-width:0.39;">10</text>
<text x="11.4" y="202.7" transform="scale(0.99882,1.00118)" style="fill:#ff0000; stroke-width:0.39;">0</text>
<text x="277.6" y="217" transform="scale(0.99882,1.00118)" style="fill:#0000ff; stroke-width:0.39;">15</text>
<circle cx="239" cy="109.5" r="4.54219" style="color:black; overflow:visible; fill:black; stroke:#73d216; stroke-width:2.73; stroke-linecap:round;"/>
<text x="174.1" y="134.8" style="font-size:23.6px; color:black; overflow:visible; fill:black; stroke-width:0.39px;">(12,5)</text>
<path style="fill:#ba00ff; stroke:#ff0000; stroke-width:1.38;" d="m 251.5,109.7 h 51.6"/>
<path style="fill:#0000ff; stroke:#0000ff; stroke-width:1.38;" d="M 239.8,96.5 V 48.8"/>
<path style="marker-start:url(#id3); marker-end:url(#id4); fill:none; stroke:#0000ff; stroke-width:1.16;" d="m 36.5,63.1 c 2.4,0 201.8,0 201.8,0"/>
<path style="marker-start:url(#id5); marker-end:url(#id6); fill:none; stroke:#ff0000; stroke-width:1.17;" d="m 283.6,111.2 c 0,26.9 0,56.2 0,80.8"/>
<text x="120.1" y="54.5" transform="scale(0.99882,1.00118)" style="fill:#0000ff; stroke-width:0.39;">12</text>
<text x="290.2" y="159.5" transform="scale(0.99882,1.00118)" style="font-size:23.6px; fill:#ff0000; stroke-width:0.39;">5</text>
<text x="321" y="221.3" style="font-family:'Times New Roman'; font-weight:bold; font-size:37.2px; font-style:italic; overflow:visible; fill:#0000ff; stroke-width:0.39px;">x</text>
<text x="47.6" y="24.9" style="font-family:'Times New Roman'; font-weight:bold; font-size:33.9px; font-style:italic; overflow:visible; fill:#ff0000; stroke-width:0.39px;">y</text>
<path style="marker-end:url(#id7); fill:none; stroke:#0000ff; stroke-width:1.65;" d="M 73.8,262.9 H 340.7"/>
</svg>